<svg width="131" height="122" viewBox="0 0 131 122" fill="none" xmlns="http://www.w3.org/2000/svg">
<path d="M106.438 19.0625H24.5625C17.7798 19.0625 12.2812 24.1832 12.2812 30.5V99.125C12.2812 105.442 17.7798 110.562 24.5625 110.562H106.438C113.22 110.562 118.719 105.442 118.719 99.125V30.5C118.719 24.1832 113.22 19.0625 106.438 19.0625Z" stroke="#00DEA9" stroke-width="8" stroke-linejoin="round"/>
<path d="M75.7344 61C79.1257 61 81.875 58.4396 81.875 55.2812C81.875 52.1229 79.1257 49.5625 75.7344 49.5625C72.343 49.5625 69.5938 52.1229 69.5938 55.2812C69.5938 58.4396 72.343 61 75.7344 61Z" fill="#00DEA9"/>
<path d="M96.2031 61C99.5945 61 102.344 58.4396 102.344 55.2812C102.344 52.1229 99.5945 49.5625 96.2031 49.5625C92.8118 49.5625 90.0625 52.1229 90.0625 55.2812C90.0625 58.4396 92.8118 61 96.2031 61Z" fill="#00DEA9"/>
<path d="M75.7344 80.0625C79.1257 80.0625 81.875 77.5021 81.875 74.3438C81.875 71.1854 79.1257 68.625 75.7344 68.625C72.343 68.625 69.5938 71.1854 69.5938 74.3438C69.5938 77.5021 72.343 80.0625 75.7344 80.0625Z" fill="#00DEA9"/>
<path d="M96.2031 80.0625C99.5945 80.0625 102.344 77.5021 102.344 74.3438C102.344 71.1854 99.5945 68.625 96.2031 68.625C92.8118 68.625 90.0625 71.1854 90.0625 74.3438C90.0625 77.5021 92.8118 80.0625 96.2031 80.0625Z" fill="#00DEA9"/>
<path d="M34.7969 80.0625C38.1882 80.0625 40.9375 77.5021 40.9375 74.3438C40.9375 71.1854 38.1882 68.625 34.7969 68.625C31.4055 68.625 28.6562 71.1854 28.6562 74.3438C28.6562 77.5021 31.4055 80.0625 34.7969 80.0625Z" fill="#00DEA9"/>
<path d="M55.2656 80.0625C58.657 80.0625 61.4062 77.5021 61.4062 74.3438C61.4062 71.1854 58.657 68.625 55.2656 68.625C51.8743 68.625 49.125 71.1854 49.125 74.3438C49.125 77.5021 51.8743 80.0625 55.2656 80.0625Z" fill="#00DEA9"/>
<path d="M34.7969 99.125C38.1882 99.125 40.9375 96.5646 40.9375 93.4062C40.9375 90.2479 38.1882 87.6875 34.7969 87.6875C31.4055 87.6875 28.6562 90.2479 28.6562 93.4062C28.6562 96.5646 31.4055 99.125 34.7969 99.125Z" fill="#00DEA9"/>
<path d="M55.2656 99.125C58.657 99.125 61.4062 96.5646 61.4062 93.4062C61.4062 90.2479 58.657 87.6875 55.2656 87.6875C51.8743 87.6875 49.125 90.2479 49.125 93.4062C49.125 96.5646 51.8743 99.125 55.2656 99.125Z" fill="#00DEA9"/>
<path d="M75.7344 99.125C79.1257 99.125 81.875 96.5646 81.875 93.4062C81.875 90.2479 79.1257 87.6875 75.7344 87.6875C72.343 87.6875 69.5938 90.2479 69.5938 93.4062C69.5938 96.5646 72.343 99.125 75.7344 99.125Z" fill="#00DEA9"/>
<path d="M98.25 11.4375V19.0625M32.75 11.4375V19.0625V11.4375Z" stroke="#00DEA9" stroke-width="15" stroke-linecap="round" stroke-linejoin="round"/>
<path d="M118.719 38.125H12.2812" stroke="#00DEA9" stroke-width="8" stroke-linejoin="round"/>
</svg>
