<svg width="112" height="141" viewBox="0 0 112 141" fill="none" xmlns="http://www.w3.org/2000/svg">
<path d="M76.6333 8.14495C71.3942 2.89248 64.0767 0 56 0C47.8802 0 40.5385 2.87498 35.3236 8.09495C30.0523 13.3724 27.4839 20.5449 28.0869 28.2898C29.2823 43.5697 41.8039 55.9997 56 55.9997C70.1961 55.9997 82.6962 43.5722 83.9104 28.2948C84.5215 20.6199 81.937 13.4624 76.6333 8.14495ZM103.383 111.999H8.61669C7.37628 112.014 6.14787 111.772 5.02084 111.291C3.89381 110.81 2.89651 110.101 2.10148 109.217C0.35153 107.274 -0.353835 104.622 0.168458 101.939C2.4407 90.2345 9.53205 80.402 20.6779 73.4996C30.5799 67.3721 43.123 63.9996 56 63.9996C68.877 63.9996 81.4201 67.3746 91.3221 73.4996C102.468 80.3995 109.559 90.232 111.832 101.937C112.354 104.619 111.648 107.272 109.899 109.214C109.104 110.099 108.107 110.808 106.98 111.29C105.852 111.772 104.624 112.014 103.383 111.999Z" fill="#00DEA9"/>
<ellipse cx="56" cy="106" rx="56" ry="35" fill="#00DEA9"/>
</svg>
